{
	"asset":{
		"generator":"Khronos glTF Blender I/O v5.1.18",
		"version":"2.0"
	},
	"scene":0,
	"scenes":[
		{
			"name":"FenceInline_B",
			"nodes":[
				0,
				1
			]
		}
	],
	"nodes":[
		{
			"mesh":0,
			"name":"Cube.016",
			"rotation":[
				0,
				-1,
				0,
				1.6292068494294654e-07
			]
		},
		{
			"mesh":1,
			"name":"fence_inline_b-convcolonly",
			"scale":[
				1.2982765436172485,
				1,
				0.10265374183654785
			],
			"translation":[
				-1.2092629671096802,
				0.04914294555783272,
				0
			]
		}
	],
	"materials":[
		{
			"doubleSided":true,
			"name":"Env_Props_A",
			"pbrMetallicRoughness":{
				"baseColorTexture":{
					"index":0
				},
				"metallicFactor":0
			}
		}
	],
	"meshes":[
		{
			"name":"Cube.039",
			"primitives":[
				{
					"attributes":{
						"POSITION":0,
						"NORMAL":1,
						"TEXCOORD_0":2,
						"COLOR_0":3,
						"COLOR_1":4
					},
					"indices":5,
					"material":0
				}
			]
		},
		{
			"name":"Cube.045",
			"primitives":[
				{
					"attributes":{
						"POSITION":6,
						"NORMAL":7,
						"TEXCOORD_0":8
					},
					"indices":9
				}
			]
		}
	],
	"textures":[
		{
			"sampler":0,
			"source":0
		}
	],
	"images":[
		{
			"mimeType":"image/png",
			"name":"Ucupaint Env_Props_A_Paint Color",
			"uri":"../textures/Ucupaint%20Env_Props_A_Paint%20Color.png"
		}
	],
	"accessors":[
		{
			"bufferView":0,
			"componentType":5126,
			"count":87,
			"max":[
				2.5133395195007324,
				1.0727293491363525,
				0.10151755064725876
			],
			"min":[
				0.07471752166748047,
				-6.0498714447021484e-05,
				-0.10151373594999313
			],
			"type":"VEC3"
		},
		{
			"bufferView":1,
			"componentType":5126,
			"count":87,
			"type":"VEC3"
		},
		{
			"bufferView":2,
			"componentType":5126,
			"count":87,
			"type":"VEC2"
		},
		{
			"bufferView":3,
			"componentType":5121,
			"count":87,
			"normalized":true,
			"type":"VEC4"
		},
		{
			"bufferView":4,
			"componentType":5123,
			"count":87,
			"normalized":true,
			"type":"VEC4"
		},
		{
			"bufferView":5,
			"componentType":5123,
			"count":162,
			"type":"SCALAR"
		},
		{
			"bufferView":6,
			"componentType":5126,
			"count":24,
			"max":[
				1,
				1,
				1.3055250644683838
			],
			"min":[
				-1,
				-0.04181563854217529,
				-1.1214754581451416
			],
			"type":"VEC3"
		},
		{
			"bufferView":7,
			"componentType":5126,
			"count":24,
			"type":"VEC3"
		},
		{
			"bufferView":8,
			"componentType":5126,
			"count":24,
			"type":"VEC2"
		},
		{
			"bufferView":9,
			"componentType":5123,
			"count":36,
			"type":"SCALAR"
		}
	],
	"bufferViews":[
		{
			"buffer":0,
			"byteLength":1044,
			"byteOffset":0,
			"target":34962
		},
		{
			"buffer":0,
			"byteLength":1044,
			"byteOffset":1044,
			"target":34962
		},
		{
			"buffer":0,
			"byteLength":696,
			"byteOffset":2088,
			"target":34962
		},
		{
			"buffer":0,
			"byteLength":348,
			"byteOffset":2784,
			"target":34962
		},
		{
			"buffer":0,
			"byteLength":696,
			"byteOffset":3132,
			"target":34962
		},
		{
			"buffer":0,
			"byteLength":324,
			"byteOffset":3828,
			"target":34963
		},
		{
			"buffer":0,
			"byteLength":288,
			"byteOffset":4152,
			"target":34962
		},
		{
			"buffer":0,
			"byteLength":288,
			"byteOffset":4440,
			"target":34962
		},
		{
			"buffer":0,
			"byteLength":192,
			"byteOffset":4728,
			"target":34962
		},
		{
			"buffer":0,
			"byteLength":72,
			"byteOffset":4920,
			"target":34963
		}
	],
	"samplers":[
		{
			"magFilter":9729,
			"minFilter":9987
		}
	],
	"buffers":[
		{
			"byteLength":4992,
			"uri":"FenceInline_B.bin"
		}
	]
}
