{
	"asset":{
		"generator":"Khronos glTF Blender I/O v5.1.18",
		"version":"2.0"
	},
	"scene":0,
	"scenes":[
		{
			"name":"FenceInline_A",
			"nodes":[
				0,
				1
			]
		}
	],
	"nodes":[
		{
			"mesh":0,
			"name":"Cube.010",
			"rotation":[
				0,
				0.7071068286895752,
				0,
				0.7071068286895752
			]
		},
		{
			"mesh":1,
			"name":"fence_inline_a-convcolonly",
			"scale":[
				1.2982765436172485,
				1,
				0.10265374183654785
			],
			"translation":[
				-1.2092629671096802,
				0.04914294555783272,
				0
			]
		}
	],
	"materials":[
		{
			"doubleSided":true,
			"name":"Env_Props_A",
			"pbrMetallicRoughness":{
				"baseColorTexture":{
					"index":0
				},
				"metallicFactor":0
			}
		}
	],
	"meshes":[
		{
			"name":"Cube.033",
			"primitives":[
				{
					"attributes":{
						"POSITION":0,
						"NORMAL":1,
						"TEXCOORD_0":2,
						"COLOR_0":3,
						"COLOR_1":4
					},
					"indices":5,
					"material":0
				}
			]
		},
		{
			"name":"Cube.044",
			"primitives":[
				{
					"attributes":{
						"POSITION":6,
						"NORMAL":7,
						"TEXCOORD_0":8
					},
					"indices":9
				}
			]
		}
	],
	"textures":[
		{
			"sampler":0,
			"source":0
		}
	],
	"images":[
		{
			"mimeType":"image/png",
			"name":"Ucupaint Env_Props_A_Paint Color",
			"uri":"../textures/Ucupaint%20Env_Props_A_Paint%20Color.png"
		}
	],
	"accessors":[
		{
			"bufferView":0,
			"componentType":5126,
			"count":107,
			"max":[
				0.10273022949695587,
				1.0727293491363525,
				-0.06219196319580078
			],
			"min":[
				-0.10273022949695587,
				-6.0498714447021484e-05,
				-2.5121212005615234
			],
			"type":"VEC3"
		},
		{
			"bufferView":1,
			"componentType":5126,
			"count":107,
			"type":"VEC3"
		},
		{
			"bufferView":2,
			"componentType":5126,
			"count":107,
			"type":"VEC2"
		},
		{
			"bufferView":3,
			"componentType":5121,
			"count":107,
			"normalized":true,
			"type":"VEC4"
		},
		{
			"bufferView":4,
			"componentType":5123,
			"count":107,
			"normalized":true,
			"type":"VEC4"
		},
		{
			"bufferView":5,
			"componentType":5123,
			"count":192,
			"type":"SCALAR"
		},
		{
			"bufferView":6,
			"componentType":5126,
			"count":24,
			"max":[
				1,
				1,
				1.3055250644683838
			],
			"min":[
				-1,
				-0.04181563854217529,
				-1.1214754581451416
			],
			"type":"VEC3"
		},
		{
			"bufferView":7,
			"componentType":5126,
			"count":24,
			"type":"VEC3"
		},
		{
			"bufferView":8,
			"componentType":5126,
			"count":24,
			"type":"VEC2"
		},
		{
			"bufferView":9,
			"componentType":5123,
			"count":36,
			"type":"SCALAR"
		}
	],
	"bufferViews":[
		{
			"buffer":0,
			"byteLength":1284,
			"byteOffset":0,
			"target":34962
		},
		{
			"buffer":0,
			"byteLength":1284,
			"byteOffset":1284,
			"target":34962
		},
		{
			"buffer":0,
			"byteLength":856,
			"byteOffset":2568,
			"target":34962
		},
		{
			"buffer":0,
			"byteLength":428,
			"byteOffset":3424,
			"target":34962
		},
		{
			"buffer":0,
			"byteLength":856,
			"byteOffset":3852,
			"target":34962
		},
		{
			"buffer":0,
			"byteLength":384,
			"byteOffset":4708,
			"target":34963
		},
		{
			"buffer":0,
			"byteLength":288,
			"byteOffset":5092,
			"target":34962
		},
		{
			"buffer":0,
			"byteLength":288,
			"byteOffset":5380,
			"target":34962
		},
		{
			"buffer":0,
			"byteLength":192,
			"byteOffset":5668,
			"target":34962
		},
		{
			"buffer":0,
			"byteLength":72,
			"byteOffset":5860,
			"target":34963
		}
	],
	"samplers":[
		{
			"magFilter":9729,
			"minFilter":9987
		}
	],
	"buffers":[
		{
			"byteLength":5932,
			"uri":"FenceInline_A.bin"
		}
	]
}
