{
	"asset":{
		"generator":"Khronos glTF Blender I/O v5.1.18",
		"version":"2.0"
	},
	"scene":0,
	"scenes":[
		{
			"name":"FencePost",
			"nodes":[
				0,
				1
			]
		}
	],
	"nodes":[
		{
			"mesh":0,
			"name":"Cube.009"
		},
		{
			"mesh":1,
			"name":"fence_post-convcolonly",
			"scale":[
				1.2111693620681763,
				1,
				1
			],
			"translation":[
				0.005927399732172489,
				0.04914294555783272,
				0
			]
		}
	],
	"materials":[
		{
			"doubleSided":true,
			"name":"Env_Props_A",
			"pbrMetallicRoughness":{
				"baseColorTexture":{
					"index":0
				},
				"metallicFactor":0
			}
		}
	],
	"meshes":[
		{
			"name":"Cube.042",
			"primitives":[
				{
					"attributes":{
						"POSITION":0,
						"NORMAL":1,
						"TEXCOORD_0":2,
						"COLOR_0":3,
						"COLOR_1":4
					},
					"indices":5,
					"material":0
				}
			]
		},
		{
			"name":"Cube.046",
			"primitives":[
				{
					"attributes":{
						"POSITION":6,
						"NORMAL":7,
						"TEXCOORD_0":8
					},
					"indices":9
				}
			]
		}
	],
	"textures":[
		{
			"sampler":0,
			"source":0
		}
	],
	"images":[
		{
			"mimeType":"image/png",
			"name":"Ucupaint Env_Props_A_Paint Color",
			"uri":"../textures/Ucupaint%20Env_Props_A_Paint%20Color.png"
		}
	],
	"accessors":[
		{
			"bufferView":0,
			"componentType":5126,
			"count":27,
			"max":[
				0.10273022949695587,
				1.0727293491363525,
				0.10151564329862595
			],
			"min":[
				-0.10273022949695587,
				-6.0498714447021484e-05,
				-0.10151564329862595
			],
			"type":"VEC3"
		},
		{
			"bufferView":1,
			"componentType":5126,
			"count":27,
			"type":"VEC3"
		},
		{
			"bufferView":2,
			"componentType":5126,
			"count":27,
			"type":"VEC2"
		},
		{
			"bufferView":3,
			"componentType":5121,
			"count":27,
			"normalized":true,
			"type":"VEC4"
		},
		{
			"bufferView":4,
			"componentType":5123,
			"count":27,
			"normalized":true,
			"type":"VEC4"
		},
		{
			"bufferView":5,
			"componentType":5123,
			"count":72,
			"type":"SCALAR"
		},
		{
			"bufferView":6,
			"componentType":5126,
			"count":24,
			"max":[
				0.09723770618438721,
				1,
				0.13401703536510468
			],
			"min":[
				-0.09723770618438721,
				-0.04181563854217529,
				-0.11512365192174911
			],
			"type":"VEC3"
		},
		{
			"bufferView":7,
			"componentType":5126,
			"count":24,
			"type":"VEC3"
		},
		{
			"bufferView":8,
			"componentType":5126,
			"count":24,
			"type":"VEC2"
		},
		{
			"bufferView":9,
			"componentType":5123,
			"count":36,
			"type":"SCALAR"
		}
	],
	"bufferViews":[
		{
			"buffer":0,
			"byteLength":324,
			"byteOffset":0,
			"target":34962
		},
		{
			"buffer":0,
			"byteLength":324,
			"byteOffset":324,
			"target":34962
		},
		{
			"buffer":0,
			"byteLength":216,
			"byteOffset":648,
			"target":34962
		},
		{
			"buffer":0,
			"byteLength":108,
			"byteOffset":864,
			"target":34962
		},
		{
			"buffer":0,
			"byteLength":216,
			"byteOffset":972,
			"target":34962
		},
		{
			"buffer":0,
			"byteLength":144,
			"byteOffset":1188,
			"target":34963
		},
		{
			"buffer":0,
			"byteLength":288,
			"byteOffset":1332,
			"target":34962
		},
		{
			"buffer":0,
			"byteLength":288,
			"byteOffset":1620,
			"target":34962
		},
		{
			"buffer":0,
			"byteLength":192,
			"byteOffset":1908,
			"target":34962
		},
		{
			"buffer":0,
			"byteLength":72,
			"byteOffset":2100,
			"target":34963
		}
	],
	"samplers":[
		{
			"magFilter":9729,
			"minFilter":9987
		}
	],
	"buffers":[
		{
			"byteLength":2172,
			"uri":"FencePost.bin"
		}
	]
}
