{
	"asset":{
		"generator":"Khronos glTF Blender I/O v5.1.18",
		"version":"2.0"
	},
	"scene":0,
	"scenes":[
		{
			"name":"Henhouse",
			"nodes":[
				0
			]
		}
	],
	"nodes":[
		{
			"mesh":0,
			"name":"Henhouse",
			"translation":[
				10.158729553222656,
				0.254520982503891,
				27.797231674194336
			]
		}
	],
	"materials":[
		{
			"doubleSided":true,
			"name":"Buildings_A",
			"normalTexture":{
				"index":0
			},
			"pbrMetallicRoughness":{
				"baseColorTexture":{
					"index":1
				},
				"metallicRoughnessTexture":{
					"index":2
				}
			}
		}
	],
	"meshes":[
		{
			"name":"Cylinder.015",
			"primitives":[
				{
					"attributes":{
						"POSITION":0,
						"NORMAL":1,
						"TEXCOORD_0":2,
						"TEXCOORD_1":3,
						"TEXCOORD_2":4,
						"TEXCOORD_3":5,
						"COLOR_0":6,
						"COLOR_1":7,
						"COLOR_2":8,
						"COLOR_3":9
					},
					"indices":10,
					"material":0
				}
			]
		}
	],
	"textures":[
		{
			"sampler":0,
			"source":0
		},
		{
			"sampler":0,
			"source":1
		},
		{
			"sampler":0,
			"source":2
		}
	],
	"images":[
		{
			"mimeType":"image/png",
			"name":"Buildings_A_Normal",
			"uri":"../textures/Buildings_A_Normal.png"
		},
		{
			"mimeType":"image/png",
			"name":"Buildings_A_Color",
			"uri":"../textures/Buildings_A_Color.png"
		},
		{
			"mimeType":"image/png",
			"name":"Buildings_A_Metallic-Buildings_A_Roughness",
			"uri":"../textures/Buildings_A_Metallic-Buildings_A_Roughness.png"
		}
	],
	"accessors":[
		{
			"bufferView":0,
			"componentType":5126,
			"count":707,
			"max":[
				2.576932668685913,
				1.4506027698516846,
				1.5721653699874878
			],
			"min":[
				-1.5342501401901245,
				-0.2830207347869873,
				-2.189760208129883
			],
			"type":"VEC3"
		},
		{
			"bufferView":1,
			"componentType":5126,
			"count":707,
			"type":"VEC3"
		},
		{
			"bufferView":2,
			"componentType":5126,
			"count":707,
			"type":"VEC2"
		},
		{
			"bufferView":3,
			"componentType":5126,
			"count":707,
			"type":"VEC2"
		},
		{
			"bufferView":4,
			"componentType":5126,
			"count":707,
			"type":"VEC2"
		},
		{
			"bufferView":5,
			"componentType":5126,
			"count":707,
			"type":"VEC2"
		},
		{
			"bufferView":6,
			"componentType":5121,
			"count":707,
			"normalized":true,
			"type":"VEC4"
		},
		{
			"bufferView":7,
			"componentType":5123,
			"count":707,
			"normalized":true,
			"type":"VEC4"
		},
		{
			"bufferView":8,
			"componentType":5123,
			"count":707,
			"normalized":true,
			"type":"VEC4"
		},
		{
			"bufferView":9,
			"componentType":5123,
			"count":707,
			"normalized":true,
			"type":"VEC4"
		},
		{
			"bufferView":10,
			"componentType":5123,
			"count":2244,
			"type":"SCALAR"
		}
	],
	"bufferViews":[
		{
			"buffer":0,
			"byteLength":8484,
			"byteOffset":0,
			"target":34962
		},
		{
			"buffer":0,
			"byteLength":8484,
			"byteOffset":8484,
			"target":34962
		},
		{
			"buffer":0,
			"byteLength":5656,
			"byteOffset":16968,
			"target":34962
		},
		{
			"buffer":0,
			"byteLength":5656,
			"byteOffset":22624,
			"target":34962
		},
		{
			"buffer":0,
			"byteLength":5656,
			"byteOffset":28280,
			"target":34962
		},
		{
			"buffer":0,
			"byteLength":5656,
			"byteOffset":33936,
			"target":34962
		},
		{
			"buffer":0,
			"byteLength":2828,
			"byteOffset":39592,
			"target":34962
		},
		{
			"buffer":0,
			"byteLength":5656,
			"byteOffset":42420,
			"target":34962
		},
		{
			"buffer":0,
			"byteLength":5656,
			"byteOffset":48076,
			"target":34962
		},
		{
			"buffer":0,
			"byteLength":5656,
			"byteOffset":53732,
			"target":34962
		},
		{
			"buffer":0,
			"byteLength":4488,
			"byteOffset":59388,
			"target":34963
		}
	],
	"samplers":[
		{
			"magFilter":9729,
			"minFilter":9987
		}
	],
	"buffers":[
		{
			"byteLength":63876,
			"uri":"Henhouse.bin"
		}
	]
}
