{
	"asset":{
		"generator":"Khronos glTF Blender I/O v5.1.18",
		"version":"2.0"
	},
	"scene":0,
	"scenes":[
		{
			"name":"_Base_Env_Lvl1",
			"nodes":[
				0,
				1,
				2,
				3,
				4,
				5,
				6,
				7,
				8,
				9,
				10,
				11,
				12,
				13,
				14,
				15,
				16,
				17,
				18,
				19,
				20,
				21
			]
		}
	],
	"nodes":[
		{
			"mesh":0,
			"name":"Terrain-convcol",
			"scale":[
				20,
				20,
				20
			]
		},
		{
			"mesh":1,
			"name":"BorderHedgePiece",
			"rotation":[
				0,
				-1,
				0,
				1.6292068494294654e-07
			],
			"translation":[
				-20,
				1,
				10
			]
		},
		{
			"mesh":2,
			"name":"BorderHedgePieceCrnr",
			"rotation":[
				0,
				-1,
				0,
				1.6292068494294654e-07
			],
			"translation":[
				-20,
				1,
				20
			]
		},
		{
			"mesh":1,
			"name":"BorderHedgePiece.001",
			"rotation":[
				0,
				-1,
				0,
				1.6292068494294654e-07
			],
			"translation":[
				-20,
				1,
				0
			]
		},
		{
			"mesh":1,
			"name":"BorderHedgePiece.002",
			"rotation":[
				0,
				-1,
				0,
				1.6292068494294654e-07
			],
			"translation":[
				-20,
				1,
				-10
			]
		},
		{
			"mesh":2,
			"name":"BorderHedgePieceCrnr.001",
			"rotation":[
				0,
				0.7071068286895752,
				0,
				0.7071068286895752
			],
			"translation":[
				-19.999998092651367,
				1,
				-20
			]
		},
		{
			"mesh":1,
			"name":"BorderHedgePiece.003",
			"translation":[
				20,
				1,
				-10
			]
		},
		{
			"mesh":2,
			"name":"BorderHedgePieceCrnr.002",
			"translation":[
				20.000001907348633,
				1,
				-20
			]
		},
		{
			"mesh":1,
			"name":"BorderHedgePiece.004",
			"translation":[
				20,
				1,
				0
			]
		},
		{
			"mesh":1,
			"name":"BorderHedgePiece.005",
			"translation":[
				20,
				1,
				10
			]
		},
		{
			"mesh":2,
			"name":"BorderHedgePieceCrnr.003",
			"rotation":[
				0,
				-0.7071068286895752,
				0,
				0.7071068286895752
			],
			"translation":[
				19.999998092651367,
				1,
				20
			]
		},
		{
			"mesh":1,
			"name":"BorderHedgePiece.006",
			"rotation":[
				0,
				0.7071068286895752,
				0,
				0.7071068286895752
			],
			"translation":[
				-9.999998092651367,
				1,
				-20.000001907348633
			]
		},
		{
			"mesh":1,
			"name":"BorderHedgePiece.007",
			"rotation":[
				0,
				0.7071068286895752,
				0,
				0.7071068286895752
			],
			"translation":[
				0,
				1,
				-20.000001907348633
			]
		},
		{
			"mesh":1,
			"name":"BorderHedgePiece.008",
			"rotation":[
				0,
				0.7071068286895752,
				0,
				0.7071068286895752
			],
			"translation":[
				10.000001907348633,
				1,
				-20.000001907348633
			]
		},
		{
			"mesh":1,
			"name":"BorderHedgePiece.009",
			"rotation":[
				0,
				-0.7071068286895752,
				0,
				0.7071068286895752
			],
			"translation":[
				10.000001907348633,
				1,
				19.999998092651367
			]
		},
		{
			"mesh":1,
			"name":"BorderHedgePiece.010",
			"rotation":[
				0,
				-0.7071068286895752,
				0,
				0.7071068286895752
			],
			"translation":[
				0,
				1,
				19.9999942779541
			]
		},
		{
			"mesh":1,
			"name":"BorderHedgePiece.011",
			"rotation":[
				0,
				-0.7071068286895752,
				0,
				0.7071068286895752
			],
			"translation":[
				-9.999998092651367,
				1,
				19.999998092651367
			]
		},
		{
			"mesh":3,
			"name":"BorderHedgePiece.012",
			"rotation":[
				0,
				-0.7071068286895752,
				0,
				0.7071068286895752
			],
			"translation":[
				10.000001907348633,
				0.8134098052978516,
				16.982501983642578
			]
		},
		{
			"mesh":4,
			"name":"cube1-convcolonly",
			"rotation":[
				1,
				0,
				0,
				0
			],
			"scale":[
				-20.70686912536621,
				-0.990530788898468,
				-40.842437744140625
			],
			"translation":[
				0,
				0.6472269296646118,
				-20.23230743408203
			]
		},
		{
			"mesh":5,
			"name":"cube2-convcolonly",
			"rotation":[
				1,
				0,
				0,
				0
			],
			"scale":[
				-20.70686912536621,
				-0.990530788898468,
				-40.842437744140625
			],
			"translation":[
				0,
				0.6472269296646118,
				20.120880126953125
			]
		},
		{
			"mesh":6,
			"name":"cube3-convcolonly",
			"rotation":[
				0.7071068286895752,
				0,
				-0.7071068286895752,
				0
			],
			"scale":[
				-20.70686912536621,
				-0.990530788898468,
				-40.842437744140625
			],
			"translation":[
				-19.984132766723633,
				0.6472269296646118,
				-0.20053482055664062
			]
		},
		{
			"mesh":7,
			"name":"cube4-convcolonly",
			"rotation":[
				0.7071068286895752,
				0,
				-0.7071068286895752,
				0
			],
			"scale":[
				-20.70686912536621,
				-0.990530788898468,
				-40.842437744140625
			],
			"translation":[
				20.322526931762695,
				0.6472269296646118,
				-0.20053482055664062
			]
		}
	],
	"materials":[
		{
			"doubleSided":true,
			"name":"Material_Terrain",
			"pbrMetallicRoughness":{
				"baseColorFactor":[
					0.8000156879425049,
					0.5714563131332397,
					0.1352453976869583,
					1
				],
				"metallicFactor":0,
				"roughnessFactor":0.5
			}
		},
		{
			"doubleSided":true,
			"name":"Env_Props_B-alpha",
			"pbrMetallicRoughness":{
				"baseColorFactor":[
					0.062224097549915314,
					0.1859057992696762,
					0.03662194684147835,
					1
				],
				"metallicFactor":0,
				"roughnessFactor":0.5
			}
		},
		{
			"doubleSided":true,
			"name":"Env_Props_A",
			"pbrMetallicRoughness":{
				"baseColorTexture":{
					"index":0
				},
				"metallicFactor":0
			}
		}
	],
	"meshes":[
		{
			"name":"Plane",
			"primitives":[
				{
					"attributes":{
						"POSITION":0,
						"NORMAL":1,
						"TEXCOORD_0":2
					},
					"indices":3,
					"material":0
				}
			]
		},
		{
			"name":"Cube.031",
			"primitives":[
				{
					"attributes":{
						"POSITION":4,
						"NORMAL":5,
						"TEXCOORD_0":6
					},
					"indices":7,
					"material":1
				},
				{
					"attributes":{
						"POSITION":8,
						"NORMAL":9,
						"TEXCOORD_0":10
					},
					"indices":11,
					"material":2
				}
			]
		},
		{
			"name":"Cube.032",
			"primitives":[
				{
					"attributes":{
						"POSITION":12,
						"NORMAL":13,
						"TEXCOORD_0":14
					},
					"indices":15,
					"material":1
				},
				{
					"attributes":{
						"POSITION":16,
						"NORMAL":17,
						"TEXCOORD_0":18
					},
					"indices":19,
					"material":2
				}
			]
		},
		{
			"name":"Cube.055",
			"primitives":[
				{
					"attributes":{
						"POSITION":20,
						"NORMAL":21,
						"TEXCOORD_0":22
					},
					"indices":23,
					"material":1
				},
				{
					"attributes":{
						"POSITION":24,
						"NORMAL":25,
						"TEXCOORD_0":26
					},
					"indices":27,
					"material":2
				}
			]
		},
		{
			"name":"Cube",
			"primitives":[
				{
					"attributes":{
						"POSITION":28,
						"NORMAL":29,
						"TEXCOORD_0":30
					},
					"indices":31
				}
			]
		},
		{
			"name":"Cube.005",
			"primitives":[
				{
					"attributes":{
						"POSITION":32,
						"NORMAL":33,
						"TEXCOORD_0":34
					},
					"indices":31
				}
			]
		},
		{
			"name":"Cube.006",
			"primitives":[
				{
					"attributes":{
						"POSITION":35,
						"NORMAL":36,
						"TEXCOORD_0":37
					},
					"indices":31
				}
			]
		},
		{
			"name":"Cube.007",
			"primitives":[
				{
					"attributes":{
						"POSITION":38,
						"NORMAL":39,
						"TEXCOORD_0":40
					},
					"indices":31
				}
			]
		}
	],
	"textures":[
		{
			"sampler":0,
			"source":0
		}
	],
	"images":[
		{
			"mimeType":"image/png",
			"name":"Props_A_Color",
			"uri":"../textures/Props_A_Color.png"
		}
	],
	"accessors":[
		{
			"bufferView":0,
			"componentType":5126,
			"count":4,
			"max":[
				1,
				0,
				1
			],
			"min":[
				-1,
				0,
				-1
			],
			"type":"VEC3"
		},
		{
			"bufferView":1,
			"componentType":5126,
			"count":4,
			"type":"VEC3"
		},
		{
			"bufferView":2,
			"componentType":5126,
			"count":4,
			"type":"VEC2"
		},
		{
			"bufferView":3,
			"componentType":5123,
			"count":6,
			"type":"SCALAR"
		},
		{
			"bufferView":4,
			"componentType":5126,
			"count":70,
			"max":[
				0.9527469277381897,
				0.4318380653858185,
				5.000003814697266
			],
			"min":[
				-0.8435132503509521,
				-0.7101172804832458,
				-5
			],
			"type":"VEC3"
		},
		{
			"bufferView":5,
			"componentType":5126,
			"count":70,
			"type":"VEC3"
		},
		{
			"bufferView":6,
			"componentType":5126,
			"count":70,
			"type":"VEC2"
		},
		{
			"bufferView":7,
			"componentType":5123,
			"count":216,
			"type":"SCALAR"
		},
		{
			"bufferView":8,
			"componentType":5126,
			"count":40,
			"max":[
				0.8858835697174072,
				-0.5377637147903442,
				5.000000476837158
			],
			"min":[
				-0.7516374588012695,
				-0.980933666229248,
				-5
			],
			"type":"VEC3"
		},
		{
			"bufferView":9,
			"componentType":5126,
			"count":40,
			"type":"VEC3"
		},
		{
			"bufferView":10,
			"componentType":5126,
			"count":40,
			"type":"VEC2"
		},
		{
			"bufferView":11,
			"componentType":5123,
			"count":108,
			"type":"SCALAR"
		},
		{
			"bufferView":12,
			"componentType":5126,
			"count":70,
			"max":[
				0.9625380039215088,
				0.4318380653858185,
				5.000000476837158
			],
			"min":[
				-5,
				-0.7101172804832458,
				-0.9625391960144043
			],
			"type":"VEC3"
		},
		{
			"bufferView":13,
			"componentType":5126,
			"count":70,
			"type":"VEC3"
		},
		{
			"bufferView":14,
			"componentType":5126,
			"count":70,
			"type":"VEC2"
		},
		{
			"bufferView":15,
			"componentType":5123,
			"count":216,
			"type":"SCALAR"
		},
		{
			"bufferView":16,
			"componentType":5126,
			"count":40,
			"max":[
				0.9308470487594604,
				-0.5377637147903442,
				5
			],
			"min":[
				-5,
				-0.980933666229248,
				-0.9308483600616455
			],
			"type":"VEC3"
		},
		{
			"bufferView":17,
			"componentType":5126,
			"count":40,
			"type":"VEC3"
		},
		{
			"bufferView":18,
			"componentType":5126,
			"count":40,
			"type":"VEC2"
		},
		{
			"bufferView":19,
			"componentType":5123,
			"count":108,
			"type":"SCALAR"
		},
		{
			"bufferView":20,
			"componentType":5126,
			"count":86,
			"max":[
				0.938751757144928,
				0.2693482041358948,
				4.5042338371276855
			],
			"min":[
				-0.6733629107475281,
				-0.5970491170883179,
				-4.500908374786377
			],
			"type":"VEC3"
		},
		{
			"bufferView":21,
			"componentType":5126,
			"count":86,
			"type":"VEC3"
		},
		{
			"bufferView":22,
			"componentType":5126,
			"count":86,
			"type":"VEC2"
		},
		{
			"bufferView":23,
			"componentType":5123,
			"count":252,
			"type":"SCALAR"
		},
		{
			"bufferView":24,
			"componentType":5126,
			"count":48,
			"max":[
				0.7472721338272095,
				-0.4246954917907715,
				4.380645275115967
			],
			"min":[
				-0.4962104558944702,
				-0.8247448801994324,
				-4.377517223358154
			],
			"type":"VEC3"
		},
		{
			"bufferView":25,
			"componentType":5126,
			"count":48,
			"type":"VEC3"
		},
		{
			"bufferView":26,
			"componentType":5126,
			"count":48,
			"type":"VEC2"
		},
		{
			"bufferView":27,
			"componentType":5123,
			"count":132,
			"type":"SCALAR"
		},
		{
			"bufferView":28,
			"componentType":5126,
			"count":24,
			"max":[
				1,
				0.4546357989311218,
				0.023006021976470947
			],
			"min":[
				-1,
				-0.789196252822876,
				-0.023006021976470947
			],
			"type":"VEC3"
		},
		{
			"bufferView":29,
			"componentType":5126,
			"count":24,
			"type":"VEC3"
		},
		{
			"bufferView":30,
			"componentType":5126,
			"count":24,
			"type":"VEC2"
		},
		{
			"bufferView":31,
			"componentType":5123,
			"count":36,
			"type":"SCALAR"
		},
		{
			"bufferView":32,
			"componentType":5126,
			"count":24,
			"max":[
				0.9999999403953552,
				0.45463570952415466,
				0.021001853048801422
			],
			"min":[
				-0.9999999403953552,
				-0.7891961336135864,
				-0.021001853048801422
			],
			"type":"VEC3"
		},
		{
			"bufferView":33,
			"componentType":5126,
			"count":24,
			"type":"VEC3"
		},
		{
			"bufferView":34,
			"componentType":5126,
			"count":24,
			"type":"VEC2"
		},
		{
			"bufferView":35,
			"componentType":5126,
			"count":24,
			"max":[
				0.9999999403953552,
				0.45463570952415466,
				0.021001853048801422
			],
			"min":[
				-0.9999999403953552,
				-0.7891961336135864,
				-0.021001853048801422
			],
			"type":"VEC3"
		},
		{
			"bufferView":36,
			"componentType":5126,
			"count":24,
			"type":"VEC3"
		},
		{
			"bufferView":37,
			"componentType":5126,
			"count":24,
			"type":"VEC2"
		},
		{
			"bufferView":38,
			"componentType":5126,
			"count":24,
			"max":[
				0.9999999403953552,
				0.45463570952415466,
				0.021001853048801422
			],
			"min":[
				-0.9999999403953552,
				-0.7891961336135864,
				-0.021001853048801422
			],
			"type":"VEC3"
		},
		{
			"bufferView":39,
			"componentType":5126,
			"count":24,
			"type":"VEC3"
		},
		{
			"bufferView":40,
			"componentType":5126,
			"count":24,
			"type":"VEC2"
		}
	],
	"bufferViews":[
		{
			"buffer":0,
			"byteLength":48,
			"byteOffset":0,
			"target":34962
		},
		{
			"buffer":0,
			"byteLength":48,
			"byteOffset":48,
			"target":34962
		},
		{
			"buffer":0,
			"byteLength":32,
			"byteOffset":96,
			"target":34962
		},
		{
			"buffer":0,
			"byteLength":12,
			"byteOffset":128,
			"target":34963
		},
		{
			"buffer":0,
			"byteLength":840,
			"byteOffset":140,
			"target":34962
		},
		{
			"buffer":0,
			"byteLength":840,
			"byteOffset":980,
			"target":34962
		},
		{
			"buffer":0,
			"byteLength":560,
			"byteOffset":1820,
			"target":34962
		},
		{
			"buffer":0,
			"byteLength":432,
			"byteOffset":2380,
			"target":34963
		},
		{
			"buffer":0,
			"byteLength":480,
			"byteOffset":2812,
			"target":34962
		},
		{
			"buffer":0,
			"byteLength":480,
			"byteOffset":3292,
			"target":34962
		},
		{
			"buffer":0,
			"byteLength":320,
			"byteOffset":3772,
			"target":34962
		},
		{
			"buffer":0,
			"byteLength":216,
			"byteOffset":4092,
			"target":34963
		},
		{
			"buffer":0,
			"byteLength":840,
			"byteOffset":4308,
			"target":34962
		},
		{
			"buffer":0,
			"byteLength":840,
			"byteOffset":5148,
			"target":34962
		},
		{
			"buffer":0,
			"byteLength":560,
			"byteOffset":5988,
			"target":34962
		},
		{
			"buffer":0,
			"byteLength":432,
			"byteOffset":6548,
			"target":34963
		},
		{
			"buffer":0,
			"byteLength":480,
			"byteOffset":6980,
			"target":34962
		},
		{
			"buffer":0,
			"byteLength":480,
			"byteOffset":7460,
			"target":34962
		},
		{
			"buffer":0,
			"byteLength":320,
			"byteOffset":7940,
			"target":34962
		},
		{
			"buffer":0,
			"byteLength":216,
			"byteOffset":8260,
			"target":34963
		},
		{
			"buffer":0,
			"byteLength":1032,
			"byteOffset":8476,
			"target":34962
		},
		{
			"buffer":0,
			"byteLength":1032,
			"byteOffset":9508,
			"target":34962
		},
		{
			"buffer":0,
			"byteLength":688,
			"byteOffset":10540,
			"target":34962
		},
		{
			"buffer":0,
			"byteLength":504,
			"byteOffset":11228,
			"target":34963
		},
		{
			"buffer":0,
			"byteLength":576,
			"byteOffset":11732,
			"target":34962
		},
		{
			"buffer":0,
			"byteLength":576,
			"byteOffset":12308,
			"target":34962
		},
		{
			"buffer":0,
			"byteLength":384,
			"byteOffset":12884,
			"target":34962
		},
		{
			"buffer":0,
			"byteLength":264,
			"byteOffset":13268,
			"target":34963
		},
		{
			"buffer":0,
			"byteLength":288,
			"byteOffset":13532,
			"target":34962
		},
		{
			"buffer":0,
			"byteLength":288,
			"byteOffset":13820,
			"target":34962
		},
		{
			"buffer":0,
			"byteLength":192,
			"byteOffset":14108,
			"target":34962
		},
		{
			"buffer":0,
			"byteLength":72,
			"byteOffset":14300,
			"target":34963
		},
		{
			"buffer":0,
			"byteLength":288,
			"byteOffset":14372,
			"target":34962
		},
		{
			"buffer":0,
			"byteLength":288,
			"byteOffset":14660,
			"target":34962
		},
		{
			"buffer":0,
			"byteLength":192,
			"byteOffset":14948,
			"target":34962
		},
		{
			"buffer":0,
			"byteLength":288,
			"byteOffset":15140,
			"target":34962
		},
		{
			"buffer":0,
			"byteLength":288,
			"byteOffset":15428,
			"target":34962
		},
		{
			"buffer":0,
			"byteLength":192,
			"byteOffset":15716,
			"target":34962
		},
		{
			"buffer":0,
			"byteLength":288,
			"byteOffset":15908,
			"target":34962
		},
		{
			"buffer":0,
			"byteLength":288,
			"byteOffset":16196,
			"target":34962
		},
		{
			"buffer":0,
			"byteLength":192,
			"byteOffset":16484,
			"target":34962
		}
	],
	"samplers":[
		{
			"magFilter":9729,
			"minFilter":9987
		}
	],
	"buffers":[
		{
			"byteLength":16676,
			"uri":"Level%201%20Environment.bin"
		}
	]
}
