{
	"asset":{
		"generator":"Khronos glTF Blender I/O v5.1.18",
		"version":"2.0"
	},
	"scene":0,
	"scenes":[
		{
			"name":"_Base_Env_Lvl1",
			"nodes":[
				0,
				1,
				2,
				3,
				4,
				5,
				6,
				7,
				8,
				9,
				10,
				11,
				12,
				13,
				14,
				15,
				16
			]
		}
	],
	"nodes":[
		{
			"mesh":0,
			"name":"Terrain",
			"scale":[
				20,
				20,
				20
			]
		},
		{
			"mesh":1,
			"name":"BorderHedgePiece",
			"scale":[
				1,
				1,
				5
			],
			"translation":[
				-20,
				1,
				10
			]
		},
		{
			"mesh":2,
			"name":"BorderHedgePieceCrnr",
			"scale":[
				1,
				1,
				5
			],
			"translation":[
				-20,
				1,
				20
			]
		},
		{
			"mesh":1,
			"name":"BorderHedgePiece.001",
			"scale":[
				1,
				1,
				5
			],
			"translation":[
				-20,
				1,
				0
			]
		},
		{
			"mesh":1,
			"name":"BorderHedgePiece.002",
			"scale":[
				1,
				1,
				5
			],
			"translation":[
				-20,
				1,
				-10
			]
		},
		{
			"mesh":2,
			"name":"BorderHedgePieceCrnr.001",
			"rotation":[
				0,
				-0.7071068286895752,
				0,
				0.7071068286895752
			],
			"scale":[
				1,
				1,
				5
			],
			"translation":[
				-20,
				1,
				-20
			]
		},
		{
			"mesh":1,
			"name":"BorderHedgePiece.003",
			"rotation":[
				0,
				1,
				0,
				1.6292068494294654e-07
			],
			"scale":[
				1,
				1,
				5
			],
			"translation":[
				20,
				1,
				-10
			]
		},
		{
			"mesh":2,
			"name":"BorderHedgePieceCrnr.002",
			"rotation":[
				0,
				1,
				0,
				1.6292068494294654e-07
			],
			"scale":[
				1,
				1,
				5
			],
			"translation":[
				20.000001907348633,
				1,
				-20
			]
		},
		{
			"mesh":1,
			"name":"BorderHedgePiece.004",
			"rotation":[
				0,
				1,
				0,
				1.6292068494294654e-07
			],
			"scale":[
				1,
				1,
				5
			],
			"translation":[
				20,
				1,
				0
			]
		},
		{
			"mesh":1,
			"name":"BorderHedgePiece.005",
			"rotation":[
				0,
				1,
				0,
				1.6292068494294654e-07
			],
			"scale":[
				1,
				1,
				5
			],
			"translation":[
				20,
				1,
				10
			]
		},
		{
			"mesh":2,
			"name":"BorderHedgePieceCrnr.003",
			"rotation":[
				0,
				0.7071068286895752,
				0,
				0.7071068286895752
			],
			"scale":[
				1,
				1,
				5
			],
			"translation":[
				19.999998092651367,
				1,
				20
			]
		},
		{
			"mesh":1,
			"name":"BorderHedgePiece.006",
			"rotation":[
				0,
				-0.70710688829422,
				0,
				0.7071066498756409
			],
			"scale":[
				1,
				1,
				5
			],
			"translation":[
				-9.999998092651367,
				1,
				-20.000001907348633
			]
		},
		{
			"mesh":1,
			"name":"BorderHedgePiece.007",
			"rotation":[
				0,
				-0.70710688829422,
				0,
				0.7071066498756409
			],
			"scale":[
				1,
				1,
				5
			],
			"translation":[
				0,
				1,
				-20.000001907348633
			]
		},
		{
			"mesh":1,
			"name":"BorderHedgePiece.008",
			"rotation":[
				0,
				-0.70710688829422,
				0,
				0.7071066498756409
			],
			"scale":[
				1,
				1,
				5
			],
			"translation":[
				10.000001907348633,
				1,
				-20.000001907348633
			]
		},
		{
			"mesh":1,
			"name":"BorderHedgePiece.009",
			"rotation":[
				0,
				0.7071066498756409,
				0,
				0.70710688829422
			],
			"scale":[
				1,
				1,
				5
			],
			"translation":[
				10.000001907348633,
				1,
				19.999998092651367
			]
		},
		{
			"mesh":1,
			"name":"BorderHedgePiece.010",
			"rotation":[
				0,
				0.7071066498756409,
				0,
				0.70710688829422
			],
			"scale":[
				1,
				1,
				5
			],
			"translation":[
				0,
				1,
				19.999998092651367
			]
		},
		{
			"mesh":1,
			"name":"BorderHedgePiece.011",
			"rotation":[
				0,
				0.7071066498756409,
				0,
				0.70710688829422
			],
			"scale":[
				1,
				1,
				5
			],
			"translation":[
				-9.999998092651367,
				1,
				19.999998092651367
			]
		}
	],
	"materials":[
		{
			"doubleSided":true,
			"name":"Material_Terrain",
			"pbrMetallicRoughness":{
				"baseColorFactor":[
					0.8000156879425049,
					0.5714563131332397,
					0.1352453976869583,
					1
				],
				"metallicFactor":0,
				"roughnessFactor":0.5
			}
		},
		{
			"doubleSided":true,
			"name":"Env_Props_B",
			"pbrMetallicRoughness":{
				"baseColorFactor":[
					0.062224097549915314,
					0.1859057992696762,
					0.03662194684147835,
					1
				],
				"metallicFactor":0,
				"roughnessFactor":0.5
			}
		}
	],
	"meshes":[
		{
			"name":"Plane",
			"primitives":[
				{
					"attributes":{
						"POSITION":0,
						"NORMAL":1,
						"TEXCOORD_0":2
					},
					"indices":3,
					"material":0
				}
			]
		},
		{
			"name":"Cube.022",
			"primitives":[
				{
					"attributes":{
						"POSITION":4,
						"NORMAL":5,
						"TEXCOORD_0":6
					},
					"indices":7,
					"material":1
				}
			]
		},
		{
			"name":"Cube.026",
			"primitives":[
				{
					"attributes":{
						"POSITION":8,
						"NORMAL":9,
						"TEXCOORD_0":10
					},
					"indices":11,
					"material":1
				}
			]
		}
	],
	"accessors":[
		{
			"bufferView":0,
			"componentType":5126,
			"count":4,
			"max":[
				1,
				0,
				1
			],
			"min":[
				-1,
				0,
				-1
			],
			"type":"VEC3"
		},
		{
			"bufferView":1,
			"componentType":5126,
			"count":4,
			"type":"VEC3"
		},
		{
			"bufferView":2,
			"componentType":5126,
			"count":4,
			"type":"VEC2"
		},
		{
			"bufferView":3,
			"componentType":5123,
			"count":6,
			"type":"SCALAR"
		},
		{
			"bufferView":4,
			"componentType":5126,
			"count":80,
			"max":[
				0.751636266708374,
				0.43183809518814087,
				1
			],
			"min":[
				-0.9308476448059082,
				-0.9809337258338928,
				-1.0000001192092896
			],
			"type":"VEC3"
		},
		{
			"bufferView":5,
			"componentType":5126,
			"count":80,
			"type":"VEC3"
		},
		{
			"bufferView":6,
			"componentType":5126,
			"count":80,
			"type":"VEC2"
		},
		{
			"bufferView":7,
			"componentType":5123,
			"count":324,
			"type":"SCALAR"
		},
		{
			"bufferView":8,
			"componentType":5126,
			"count":80,
			"max":[
				5.000000476837158,
				0.43183809518814087,
				0.18616949021816254
			],
			"min":[
				-0.9308476448059082,
				-0.9809337258338928,
				-1.0000001192092896
			],
			"type":"VEC3"
		},
		{
			"bufferView":9,
			"componentType":5126,
			"count":80,
			"type":"VEC3"
		},
		{
			"bufferView":10,
			"componentType":5126,
			"count":80,
			"type":"VEC2"
		},
		{
			"bufferView":11,
			"componentType":5123,
			"count":324,
			"type":"SCALAR"
		}
	],
	"bufferViews":[
		{
			"buffer":0,
			"byteLength":48,
			"byteOffset":0,
			"target":34962
		},
		{
			"buffer":0,
			"byteLength":48,
			"byteOffset":48,
			"target":34962
		},
		{
			"buffer":0,
			"byteLength":32,
			"byteOffset":96,
			"target":34962
		},
		{
			"buffer":0,
			"byteLength":12,
			"byteOffset":128,
			"target":34963
		},
		{
			"buffer":0,
			"byteLength":960,
			"byteOffset":140,
			"target":34962
		},
		{
			"buffer":0,
			"byteLength":960,
			"byteOffset":1100,
			"target":34962
		},
		{
			"buffer":0,
			"byteLength":640,
			"byteOffset":2060,
			"target":34962
		},
		{
			"buffer":0,
			"byteLength":648,
			"byteOffset":2700,
			"target":34963
		},
		{
			"buffer":0,
			"byteLength":960,
			"byteOffset":3348,
			"target":34962
		},
		{
			"buffer":0,
			"byteLength":960,
			"byteOffset":4308,
			"target":34962
		},
		{
			"buffer":0,
			"byteLength":640,
			"byteOffset":5268,
			"target":34962
		},
		{
			"buffer":0,
			"byteLength":648,
			"byteOffset":5908,
			"target":34963
		}
	],
	"buffers":[
		{
			"byteLength":6556,
			"uri":"Level%201%20Environment.bin"
		}
	]
}
